<?xml version="1.0" standalone="no"?>
<!DOCTYPE svg PUBLIC "-//W3C//DTD SVG 20010904//EN"
 "http://www.w3.org/TR/2001/REC-SVG-20010904/DTD/svg10.dtd">
<svg version="1.0" xmlns="http://www.w3.org/2000/svg"
 width="1344.000000pt" height="1344.000000pt" viewBox="0 0 1344.000000 1344.000000"
 preserveAspectRatio="xMidYMid meet">
<metadata>
Created by potrace 1.11, written by Peter Selinger 2001-2013
</metadata>
<g transform="translate(0.000000,1344.000000) scale(0.100000,-0.100000)"
fill="#000000" stroke="none">
<path d="M6355 13430 c-1687 -105 -3210 -785 -4380 -1955 -1023 -1023 -1695
-2359 -1899 -3775 -53 -367 -60 -474 -61 -955 0 -473 6 -576 51 -912 267
-1996 1397 -3746 3104 -4810 895 -557 1852 -880 2940 -990 251 -25 960 -25
1210 0 713 73 1305 215 1915 462 199 80 515 224 515 235 0 4 -39 21 -87 40
-411 155 -939 547 -1463 1086 -210 216 -377 408 -384 442 -13 62 -149 881
-195 1172 -103 651 -107 715 -59 822 31 66 118 156 181 187 53 25 277 75 287
64 4 -4 37 -176 74 -382 36 -206 68 -377 71 -380 3 -3 337 37 741 88 405 51
737 91 738 89 2 -2 26 -168 54 -370 56 -401 67 -447 146 -565 57 -86 804 -905
1137 -1247 l126 -129 25 19 c14 11 56 48 93 82 62 57 67 64 53 80 -9 9 -263
295 -567 635 -329 370 -574 653 -607 704 -189 283 -244 647 -148 982 31 109
119 286 184 373 231 306 573 479 950 481 295 2 547 -90 779 -283 32 -27 240
-252 461 -499 221 -248 406 -451 410 -451 12 0 155 321 240 540 499 1290 582
2718 238 4075 -424 1675 -1484 3122 -2958 4040 -905 563 -1894 893 -2975 990
-202 19 -743 27 -940 15z m3043 -2056 c207 -30 354 -94 460 -197 53 -52 97
-120 88 -136 -3 -4 -48 -11 -100 -14 -511 -34 -907 -296 -1091 -723 -110 -255
-139 -507 -105 -906 l13 -158 -45 -52 c-1132 -1337 -3134 -3724 -3219 -3838
-64 -85 -134 -171 -156 -191 -86 -77 -225 -100 -333 -56 -30 13 -54 29 -52 35
1 7 88 146 193 310 106 163 206 326 224 362 46 92 65 179 65 297 0 279 -148
514 -398 630 -107 50 -195 66 -327 60 -181 -9 -323 -69 -446 -189 -24 -24
-190 -228 -368 -455 l-324 -412 -25 20 c-82 64 -116 162 -115 334 3 308 97
509 493 1050 121 165 312 409 329 419 4 3 318 -109 697 -249 379 -140 716
-260 749 -266 113 -21 257 8 354 71 25 16 69 53 97 82 39 40 1734 2071 2101
2518 34 42 75 103 90 135 25 54 28 70 28 170 0 105 -2 114 -33 178 -62 126
-82 140 -551 378 -231 118 -421 217 -421 221 0 27 615 335 805 403 406 146
984 220 1323 169z m854 -499 c235 -41 452 -157 619 -332 144 -151 248 -348
288 -543 6 -30 110 -863 232 -1850 209 -1700 221 -1802 216 -1920 -7 -169 -39
-289 -117 -445 -98 -195 -239 -350 -419 -459 -152 -92 -293 -136 -518 -162
-216 -25 -397 1 -593 85 -331 142 -576 449 -649 811 -22 110 -451 3641 -451
3712 0 426 275 843 668 1013 208 91 508 128 724 90z m-2761 -434 c286 -140
454 -228 471 -247 57 -62 75 -166 40 -235 -29 -57 -2086 -2552 -2129 -2582
-57 -40 -152 -61 -213 -48 -47 10 -1291 426 -1318 440 -9 5 34 67 139 202 320
410 557 675 1394 1559 154 163 376 400 493 527 252 272 621 603 673 603 4 0
206 -98 450 -219z m1383 -2929 c185 -1628 166 -1510 282 -1752 115 -240 283
-450 476 -595 104 -79 292 -178 408 -215 36 -11 71 -23 78 -25 8 -3 -12 -34
-53 -82 -127 -151 -265 -380 -335 -556 -13 -33 -28 -60 -34 -63 -22 -7 -1319
-145 -1339 -142 -19 3 -28 45 -126 651 l-106 649 -140 71 -140 72 -131 915
c-72 503 -140 972 -151 1042 l-20 127 580 681 c318 375 581 680 583 678 2 -2
78 -657 168 -1456z m-4149 -1024 c68 -17 152 -68 205 -124 118 -124 154 -302
94 -464 -17 -46 -383 -609 -397 -610 -8 0 -846 386 -854 394 -7 7 471 634 528
692 108 111 265 152 424 112z m-650 -1220 c325 -149 592 -273 594 -275 2 -1
28 -121 57 -267 42 -210 51 -271 44 -298 -7 -25 -104 -127 -383 -406 l-373
-373 -275 115 c-507 211 -800 350 -820 388 -7 14 -7 172 0 540 12 558 13 569
65 603 48 31 472 245 486 245 8 0 281 -122 605 -272z m-1345 -613 c0 -337 -1
-365 -17 -373 -10 -5 -129 -42 -264 -82 l-245 -73 -68 -686 c-37 -377 -70
-702 -73 -721 -5 -25 -52 210 -174 860 -93 492 -169 909 -169 927 0 64 49 148
109 186 41 25 882 336 894 330 4 -2 7 -168 7 -368z m2270 -1032 c110 -352 155
-511 154 -543 -1 -55 -36 -139 -72 -172 -27 -25 -1592 -882 -1598 -875 -2 2
223 226 501 497 278 272 505 497 505 500 0 3 -43 131 -95 284 -53 154 -94 285
-93 292 3 15 524 514 536 514 4 0 77 -224 162 -497z"/>
<path d="M3704 4900 c-121 -17 -234 -101 -290 -215 -26 -55 -29 -69 -29 -165
0 -92 3 -112 26 -160 76 -160 246 -250 418 -220 128 22 228 98 284 218 29 61
32 76 32 162 0 82 -4 103 -27 153 -78 166 -235 252 -414 227z"/>
</g>
</svg>
